<?xml version="1.0" encoding="UTF-8" standalone="no"?>
<svg
   xmlns:dc="http://purl.org/dc/elements/1.1/"
   xmlns:cc="http://creativecommons.org/ns#"
   xmlns:rdf="http://www.w3.org/1999/02/22-rdf-syntax-ns#"
   xmlns:svg="http://www.w3.org/2000/svg"
   xmlns="http://www.w3.org/2000/svg"
   xmlns:sodipodi="http://sodipodi.sourceforge.net/DTD/sodipodi-0.dtd"
   xmlns:inkscape="http://www.inkscape.org/namespaces/inkscape"
   version="1.1"
   width="339"
   height="161"
   shape-rendering="crispEdges"
   id="svg28277"
   sodipodi:docname="NRSE_pixellogo_integrated.svg"
   inkscape:version="0.92.5 (2060ec1f9f, 2020-04-08)">
  <metadata
     id="metadata28283">
    <rdf:RDF>
      <cc:Work
         rdf:about="">
        <dc:format>image/svg+xml</dc:format>
        <dc:type
           rdf:resource="http://purl.org/dc/dcmitype/StillImage" />
        <dc:title></dc:title>
      </cc:Work>
    </rdf:RDF>
  </metadata>
  <defs
     id="defs28281" />
  <sodipodi:namedview
     pagecolor="#ffffff"
     bordercolor="#666666"
     borderopacity="1"
     objecttolerance="10"
     gridtolerance="10"
     guidetolerance="10"
     inkscape:pageopacity="0"
     inkscape:pageshadow="2"
     inkscape:window-width="1848"
     inkscape:window-height="1016"
     id="namedview28279"
     showgrid="false"
     inkscape:zoom="2.0707965"
     inkscape:cx="149.55698"
     inkscape:cy="105.33769"
     inkscape:window-x="72"
     inkscape:window-y="27"
     inkscape:window-maximized="1"
     inkscape:current-layer="svg28277" />
  <path
     d="m 74,14 c 0,4 0,8 0,12 2,0 4,0 6,0 0,-2 0,-4 0,-6 2,0 4,0 6,0 0,-2 0,-4 0,-6 -4,0 -8,0 -12,0 z m 6,12 c 0,3.666667 0,7.333333 0,11 -2,0 -4,0 -6,0 0,2 0,4 0,6 2,0 4,0 6,0 0,3 0,6 0,9 -2,0 -4,0 -6,0 0,2 0,4 0,6 2,0 4,0 6,0 0,5.333333 0,10.666667 0,16 -2,0 -4,0 -6,0 0,2 0,4 0,6 -5.333333,0 -10.666667,0 -16,0 0,-2 0,-4 0,-6 -2,0 -4,0 -6,0 0,2 0,4 0,6 -3,0 -6,0 -9,0 0,-2 0,-4 0,-6 -2,0 -4,0 -6,0 0,2 0,4 0,6 -3.666667,0 -7.333333,0 -11,0 0,2 0,4 0,6 3.666667,0 7.333333,0 11,0 0,2 0,4 0,6 2,0 4,0 6,0 0,-2 0,-4 0,-6 3,0 6,0 9,0 0,2 0,4 0,6 2,0 4,0 6,0 0,-2 0,-4 0,-6 5.333333,0 10.666667,0 16,0 0,1.666667 0,3.333333 0,5 2,0 4,0 6,0 0,5.333333 0,10.66667 0,16 -2,0 -4,0 -6,0 0,2 0,4 0,6 2,0 4,0 6,0 0,3 0,6 0,9 -2,0 -4,0 -6,0 0,2 0,4 0,6 2,0 4,0 6,0 0,3.66667 0,7.33333 0,11 2,0 4,0 6,0 0,-3.66667 0,-7.33333 0,-11 2,0 4,0 6,0 0,-2 0,-4 0,-6 -2,0 -4,0 -6,0 0,-3 0,-6 0,-9 2,0 4,0 6,0 0,-2 0,-4 0,-6 -2,0 -4,0 -6,0 0,-5.33333 0,-10.666667 0,-16 2,0 4,0 6,0 0,-1.666667 0,-3.333333 0,-5 5.333333,0 10.66667,0 16,0 0,2 0,4 0,6 2,0 4,0 6,0 0,-2 0,-4 0,-6 3,0 6,0 9,0 0,2 0,4 0,6 2,0 4,0 6,0 0,-2 0,-4 0,-6 3.66667,0 7.33333,0 11,0 0,-2 0,-4 0,-6 -16,0 -32,0 -48,0 0,-2 0,-4 0,-6 -2,0 -4,0 -6,0 0,-16 0,-32 0,-48 -2,0 -4,0 -6,0 z m 60,60 c 0,2 0,4 0,6 4,0 8,0 12,0 0,-4 0,-8 0,-12 -2,0 -4,0 -6,0 0,2 0,4 0,6 -2,0 -4,0 -6,0 z m -11,6 c 0,2 0,4 0,6 2,0 4,0 6,0 0,-2 0,-4 0,-6 -2,0 -4,0 -6,0 z m 6,6 c 0,2 0,4 0,6 2,0 4,0 6,0 0,-2 0,-4 0,-6 -2,0 -4,0 -6,0 z m -21,-6 c 0,2 0,4 0,6 2,0 4,0 6,0 0,-2 0,-4 0,-6 -2,0 -4,0 -6,0 z M 92,91 c 0,2 0,4 0,6 2,0 4,0 6,0 0,-2 0,-4 0,-6 -2,0 -4,0 -6,0 z m 6,6 c 0,2 0,4 0,6 2,0 4,0 6,0 0,-2 0,-4 0,-6 -2,0 -4,0 -6,0 z m 6,6 c 0,2 0,4 0,6 2,0 4,0 6,0 0,-2 0,-4 0,-6 -2,0 -4,0 -6,0 z m 6,6 c 0,2 0,4 0,6 2,0 4,0 6,0 0,-2 0,-4 0,-6 -2,0 -4,0 -6,0 z m 6,6 c 0,2 0,4 0,6 2,0 4,0 6,0 0,-2 0,-4 0,-6 -2,0 -4,0 -6,0 z m 6,0 c 2,0 4,0 6,0 0,-2 0,-4 0,-6 -2,0 -4,0 -6,0 0,2 0,4 0,6 z m 0,6 c 0,2 0,4 0,6 2,0 4,0 6,0 0,-2 0,-4 0,-6 -2,0 -4,0 -6,0 z m -6,0 c -2,0 -4,0 -6,0 0,2 0,4 0,6 2,0 4,0 6,0 0,-2 0,-4 0,-6 z m -24,-8 c 0,2 0,4 0,6 2,0 4,0 6,0 0,-2 0,-4 0,-6 -2,0 -4,0 -6,0 z m 0,15 c 0,2 0,4 0,6 2,0 4,0 6,0 0,-2 0,-4 0,-6 -2,0 -4,0 -6,0 z m 6,6 c 0,2 0,4 0,6 2,0 4,0 6,0 0,-2 0,-4 0,-6 -2,0 -4,0 -6,0 z m -12,5 c 0,2 0,4 0,6 -2,0 -4,0 -6,0 0,-2 0,-4 0,-6 -2,0 -4,0 -6,0 0,4 0,8 0,12 6,0 12,0 18,0 0,-4 0,-8 0,-12 -2,0 -4,0 -6,0 z M 74,128 c -2,0 -4,0 -6,0 0,2 0,4 0,6 2,0 4,0 6,0 0,-2 0,-4 0,-6 z m -6,6 c -2,0 -4,0 -6,0 0,2 0,4 0,6 2,0 4,0 6,0 0,-2 0,-4 0,-6 z m 6,-21 c -2,0 -4,0 -6,0 0,2 0,4 0,6 2,0 4,0 6,0 0,-2 0,-4 0,-6 z m 0,-22 c -2,0 -4,0 -6,0 0,2 0,4 0,6 2,0 4,0 6,0 0,-2 0,-4 0,-6 z m -6,6 c -2,0 -4,0 -6,0 0,2 0,4 0,6 2,0 4,0 6,0 0,-2 0,-4 0,-6 z m -6,6 c -2,0 -4,0 -6,0 0,2 0,4 0,6 2,0 4,0 6,0 0,-2 0,-4 0,-6 z m -6,6 c -2,0 -4,0 -6,0 0,2 0,4 0,6 2,0 4,0 6,0 0,-2 0,-4 0,-6 z m -6,6 c -2,0 -4,0 -6,0 0,2 0,4 0,6 2,0 4,0 6,0 0,-2 0,-4 0,-6 z m 0,6 c 0,2 0,4 0,6 2,0 4,0 6,0 0,-2 0,-4 0,-6 -2,0 -4,0 -6,0 z m -6,0 c -2,0 -4,0 -6,0 0,2 0,4 0,6 2,0 4,0 6,0 0,-2 0,-4 0,-6 z m 0,-6 c 0,-2 0,-4 0,-6 -2,0 -4,0 -6,0 0,2 0,4 0,6 2,0 4,0 6,0 z m 8,-23 c -2,0 -4,0 -6,0 0,2 0,4 0,6 2,0 4,0 6,0 0,-2 0,-4 0,-6 z m -15,0 c -2,0 -4,0 -6,0 0,2 0,4 0,6 2,0 4,0 6,0 0,-2 0,-4 0,-6 z m -6,6 c -2,0 -4,0 -6,0 0,2 0,4 0,6 2,0 4,0 6,0 0,-2 0,-4 0,-6 z M 26,86 c -2,0 -4,0 -6,0 0,-2 0,-4 0,-6 2,0 4,0 6,0 0,-2 0,-4 0,-6 -4,0 -8,0 -12,0 0,6 0,12 0,18 4,0 8,0 12,0 0,-2 0,-4 0,-6 z M 37,74 c 0,-2 0,-4 0,-6 -2,0 -4,0 -6,0 0,2 0,4 0,6 2,0 4,0 6,0 z m -6,-6 c 0,-2 0,-4 0,-6 -2,0 -4,0 -6,0 0,2 0,4 0,6 2,0 4,0 6,0 z m 21,6 c 0,-2 0,-4 0,-6 -2,0 -4,0 -6,0 0,2 0,4 0,6 2,0 4,0 6,0 z m 22,0 c 0,-2 0,-4 0,-6 -2,0 -4,0 -6,0 0,2 0,4 0,6 2,0 4,0 6,0 z m -6,-6 c 0,-2 0,-4 0,-6 -2,0 -4,0 -6,0 0,2 0,4 0,6 2,0 4,0 6,0 z m -6,-6 c 0,-2 0,-4 0,-6 -2,0 -4,0 -6,0 0,2 0,4 0,6 2,0 4,0 6,0 z m -6,-6 c 0,-2 0,-4 0,-6 -2,0 -4,0 -6,0 0,2 0,4 0,6 2,0 4,0 6,0 z m -6,-6 c 0,-2 0,-4 0,-6 -2,0 -4,0 -6,0 0,2 0,4 0,6 2,0 4,0 6,0 z m -6,0 c -2,0 -4,0 -6,0 0,2 0,4 0,6 2,0 4,0 6,0 0,-2 0,-4 0,-6 z m 0,-6 c 0,-2 0,-4 0,-6 -2,0 -4,0 -6,0 0,2 0,4 0,6 2,0 4,0 6,0 z m 6,0 c 2,0 4,0 6,0 0,-2 0,-4 0,-6 -2,0 -4,0 -6,0 0,2 0,4 0,6 z m 24,8 c 0,-2 0,-4 0,-6 -2,0 -4,0 -6,0 0,2 0,4 0,6 2,0 4,0 6,0 z m 0,-15 c 0,-2 0,-4 0,-6 -2,0 -4,0 -6,0 0,2 0,4 0,6 2,0 4,0 6,0 z m -6,-6 c 0,-2 0,-4 0,-6 -2,0 -4,0 -6,0 0,2 0,4 0,6 2,0 4,0 6,0 z m 28,-8 c 0,15.666667 0,31.333333 0,47 2,0 4,0 6,0 0,-9.666667 0,-19.333333 0,-29 1.66667,0 3.33333,0 5,0 0,-2 0,-4 0,-6 -1.66667,0 -3.33333,0 -5,0 0,-4 0,-8 0,-12 -2,0 -4,0 -6,0 z m 11,18 c 0,2 0,4 0,6 2,0 4,0 6,0 0,-2 0,-4 0,-6 -2,0 -4,0 -6,0 z m 6,6 c 0,2 0,4 0,6 2,0 4,0 6,0 0,5.666667 0,11.333333 0,17 2,0 4,0 6,0 0,-15.666667 0,-31.333333 0,-47 -2,0 -4,0 -6,0 0,8 0,16 0,24 -2,0 -4,0 -6,0 z M 238,24 c 0,6 0,12 0,18 -2,0 -4,0 -6,0 0,2 0,4 0,6 2,0 4,0 6,0 0,3.666667 0,7.333333 0,11 -2,0 -4,0 -6,0 0,2 0,4 0,6 2,0 4,0 6,0 0,2 0,4 0,6 2,0 4,0 6,0 0,-15.666667 0,-31.333333 0,-47 -2,0 -4,0 -6,0 z m -6,41 c -3.66667,0 -7.33333,0 -11,0 0,2 0,4 0,6 3.66667,0 7.33333,0 11,0 0,-2 0,-4 0,-6 z m -11,0 c 0,-7.666667 0,-15.333333 0,-23 -2,0 -4,0 -6,0 0,7.666667 0,15.333333 0,23 2,0 4,0 6,0 z m 0,-23 c 3.66667,0 7.33333,0 11,0 0,-2 0,-4 0,-6 -3.66667,0 -7.33333,0 -11,0 0,2 0,4 0,6 z m 44,-18 c 0,2 0,4 0,6 2,0 4,0 6,0 0,-2 0,-4 0,-6 -2,0 -4,0 -6,0 z M 141,35 c 0,2 0,4 0,6 5.66667,0 11.33333,0 17,0 0,-2 0,-4 0,-6 -5.66667,0 -11.33333,0 -17,0 z m 17,6 c 0,7.666667 0,15.333333 0,23 2,0 4,0 6,0 0,-7.666667 0,-15.333333 0,-23 -2,0 -4,0 -6,0 z m 0,23 c -5.66667,0 -11.33333,0 -17,0 0,2 0,4 0,6 5.66667,0 11.33333,0 17,0 0,-2 0,-4 0,-6 z m -17,0 c 0,-7.666667 0,-15.333333 0,-23 -2,0 -4,0 -6,0 0,7.666667 0,15.333333 0,23 2,0 4,0 6,0 z m 34,-29 c 0,2 0,4 0,6 2,0 4,0 6,0 0,7.666667 0,15.333333 0,23 -2,0 -4,0 -6,0 0,2 0,4 0,6 7.66667,0 15.33333,0 23,0 0,-2 0,-4 0,-6 -4,0 -8,0 -12,0 0,-5.666667 0,-11.333333 0,-17 2,0 4,0 6,0 0,-2 0,-4 0,-6 -2,0 -4,0 -6,0 0,-2 0,-4 0,-6 -3.66667,0 -7.33333,0 -11,0 z m 17,6 c 4,0 8,0 12,0 0,-2 0,-4 0,-6 -4,0 -8,0 -12,0 0,2 0,4 0,6 z m 62,-5 c 0,2 0,4 0,6 3.66667,0 7.33333,0 11,0 0,7.666667 0,15.333333 0,23 -3.66667,0 -7.33333,0 -11,0 0,2 0,4 0,6 9.66667,0 19.33333,0 29,0 0,-2 0,-4 0,-6 -4,0 -8,0 -12,0 0,-9.666667 0,-19.333333 0,-29 -5.66667,0 -11.33333,0 -17,0 z m 46,0 c 0,2 0,4 0,6 5.66667,0 11.33333,0 17,0 0,-2 0,-4 0,-6 -5.66667,0 -11.33333,0 -17,0 z m 17,6 c 0,2 0,4 0,6 2,0 4,0 6,0 0,-2 0,-4 0,-6 -2,0 -4,0 -6,0 z m -17,0 c -2,0 -4,0 -6,0 0,7.666667 0,15.333333 0,23 2,0 4,0 6,0 0,-7.666667 0,-15.333333 0,-23 z m 0,23 c 0,2 0,4 0,6 5.66667,0 11.33333,0 17,0 0,-2 0,-4 0,-6 -5.66667,0 -11.33333,0 -17,0 z m 17,0 c 2,0 4,0 6,0 0,-2 0,-4 0,-6 -2,0 -4,0 -6,0 0,2 0,4 0,6 z M 176,96 c 0,15.66667 0,31.33333 0,47 2,0 4,0 6,0 0,-5.66667 0,-11.33333 0,-17 3.66667,0 7.33333,0 11,0 0,1.66667 0,3.33333 0,5 2,0 4,0 6,0 0,-3.66667 0,-7.33333 0,-11 -5.66667,0 -11.33333,0 -17,0 0,-6 0,-12 0,-18 5.66667,0 11.33333,0 17,0 0,-2 0,-4 0,-6 -7.66667,0 -15.33333,0 -23,0 z m 23,6 c 0,6 0,12 0,18 2,0 4,0 6,0 0,-6 0,-12 0,-18 -2,0 -4,0 -6,0 z m 0,29 c 0,4 0,8 0,12 2,0 4,0 6,0 0,-4 0,-8 0,-12 -2,0 -4,0 -6,0 z m 23,-35 c 0,2 0,4 0,6 5.66667,0 11.33333,0 17,0 0,-2 0,-4 0,-6 -5.66667,0 -11.33333,0 -17,0 z m 17,6 c 0,2 0,4 0,6 2,0 4,0 6,0 0,-2 0,-4 0,-6 -2,0 -4,0 -6,0 z m -17,0 c -2,0 -4,0 -6,0 0,4 0,8 0,12 2,0 4,0 6,0 0,-4 0,-8 0,-12 z m 0,12 c 0,2 0,4 0,6 5.66667,0 11.33333,0 17,0 0,-2 0,-4 0,-6 -5.66667,0 -11.33333,0 -17,0 z m 17,6 c 0,5.66667 0,11.33333 0,17 2,0 4,0 6,0 0,-5.66667 0,-11.33333 0,-17 -2,0 -4,0 -6,0 z m 0,17 c -5.66667,0 -11.33333,0 -17,0 0,2 0,4 0,6 5.66667,0 11.33333,0 17,0 0,-2 0,-4 0,-6 z m -17,0 c 0,-2 0,-4 0,-6 -2,0 -4,0 -6,0 0,2 0,4 0,6 2,0 4,0 6,0 z m 35,-41 c 0,15.66667 0,31.33333 0,47 9.66667,0 19.33333,0 29,0 0,-2 0,-4 0,-6 -7.66667,0 -15.33333,0 -23,0 0,-5.66667 0,-11.33333 0,-17 5.66667,0 11.33333,0 17,0 0,-2 0,-4 0,-6 -5.66667,0 -11.33333,0 -17,0 0,-4 0,-8 0,-12 7.66667,0 15.33333,0 23,0 0,-2 0,-4 0,-6 -9.66667,0 -19.33333,0 -29,0 z"
     id="rect10383"
     inkscape:connector-curvature="0"
     style="fill:#740048;fill-opacity:1" />
</svg>
